<svg xmlns="http://www.w3.org/2000/svg" xmlns:xlink="http://www.w3.org/1999/xlink" id="Layer_1" x="0px" y="0px" viewBox="0 0 383.13 384" style="enable-background:new 0 0 383.13 384;" xml:space="preserve"><g>	<path d="M180.28,384c-7.02-0.93-14.09-1.64-21.07-2.83c-43.19-7.39-79.72-27.38-109.11-59.78C13.05,280.57-3.47,232.18,0.6,177.2  c3.94-53.21,27.12-96.95,67.25-131.81c1.19-1.03,2.82-2.46,4.08-2.31c1.98,0.24,4.3,1.23,5.61,2.69c1.76,1.95,1.18,4.55-0.67,6.45  c-1.82,1.87-3.91,3.49-5.84,5.26c-33.92,31.15-54.85,69.47-58.7,115.42c-6.28,74.83,22.81,133.31,86.1,173.66  c35.71,22.76,75.43,29.89,117.29,24.56c76.77-9.77,139.3-69.86,153.29-147.03c16.85-92.94-41.04-183.89-132.32-207.04  c-49.4-12.53-96.17-5.12-139.92,21.13c-0.53,0.32-1.07,0.65-1.6,0.96c-3.82,2.24-7.02,1.85-8.86-1.08  c-1.87-2.97-0.96-6.26,2.9-8.37c9.07-4.95,18.03-10.21,27.47-14.34C136,6.88,156.32,2.1,177.39,0.6c0.97-0.07,1.92-0.4,2.89-0.6  c7.49,0,14.97,0,22.46,0c0.97,0.2,1.92,0.52,2.9,0.59c32.62,2.3,62.81,12.15,90.01,30.27c46.08,30.71,74.61,73.3,84.55,128.05  c1.27,6.97,1.97,14.05,2.94,21.08c0,8,0,16,0,24c-0.22,1.08-0.47,2.15-0.65,3.23c-1.8,10.95-2.85,22.08-5.49,32.81  c-17.73,72.06-79.52,129.04-152.48,141.02c-6.98,1.15-14.01,1.96-21.02,2.93C195.75,384,188.01,384,180.28,384z"></path>	<path d="M309.48,93.1c-25.62,27.48-50.96,54.66-77.06,82.65c2.31,0,3.6-0.01,4.9,0c16.83,0.13,33.72-0.51,50.49,0.59  c22.87,1.5,41,22.25,41.28,45.65c0.27,23.1-17.48,43.79-40.02,46.55c-3.21,0.39-6.46,0.59-9.69,0.59  c-38.8,0.04-77.59,0.07-116.39-0.03c-4.71-0.01-9.41-0.83-14.13-1.1c-1.08-0.06-2.57,0.24-3.25,0.96  c-14.71,15.65-29.33,31.38-43.96,47.11c-0.16,0.17-0.2,0.45-0.38,0.88c12.5,9.2,26.14,16.32,40.9,21.18  c37.83,12.44,75.07,10.75,111.65-5.04c1.14-0.49,2.29-1.12,3.49-1.29c2.96-0.41,5.16,0.85,6.13,3.71c1.1,3.27-0.22,5.83-3.26,7.01  c-7.88,3.07-15.7,6.49-23.85,8.66c-52.31,13.93-100.45,4.86-144.24-27.05c-6.79-4.95-6.86-6.99-0.97-13.31  c70.76-75.9,141.53-151.79,212.3-227.68c5.28-5.66,7.65-5.66,12.6,0.14c30.53,35.82,44.29,77.38,39.81,124.15  c-4.93,51.46-29.54,91.97-71.77,121.69c-1.02,0.72-2.04,1.5-3.17,1.96c-2.75,1.13-5.23,0.56-6.9-1.96  c-1.66-2.5-1.31-5.01,0.82-7.14c0.78-0.78,1.79-1.35,2.71-1.99c37.25-26,59.99-61.38,66.33-106.42  c6.17-43.84-5.02-83.44-32.41-118.31C310.91,94.58,310.28,93.98,309.48,93.1z M229.07,257.79c18.8,0,37.16,0.65,55.45-0.17  c21.16-0.95,35.67-19.49,32.82-40.45c-2.37-17.43-17.23-30.01-35.91-30.14c-16.47-0.12-32.93-0.03-49.4-0.01  c-0.96,0-1.93,0.17-2.96,0.26C229.07,210.83,229.07,234.16,229.07,257.79z M217.46,191.79c-20.68,22.18-40.77,43.73-61.42,65.88  c21.05,0,41.14,0,61.42,0C217.46,235.91,217.46,214.36,217.46,191.79z"></path>	<path d="M26.27,195.58c-0.4-73.45,45.05-137.93,111.29-159.9c55.62-18.45,107.38-9.73,154.63,25.12c4.92,3.63,5.09,6.59,0.9,11.09  c-71.17,76.33-142.34,152.66-213.52,228.98c-5.27,5.65-7.6,5.63-12.6-0.18C40.07,269.46,26.82,233.07,26.27,195.58z M96.4,266.36  c-0.75-0.54-1.04-0.77-1.35-0.96c-26.89-16.58-31.48-50.73-9.64-73.55c28.31-29.58,56.75-59.04,85.31-88.38  c19.96-20.5,52.42-18.62,70.14,3.75c0.57,0.72,1.24,1.37,1.95,2.14c13.18-14.14,26.15-28.07,39.16-42.03  C218.63,20.46,123.72,28.51,70.14,97.15c-50.52,64.73-36.88,148.89,3.62,193.49C81.24,282.62,88.71,274.61,96.4,266.36z   M132.42,159.12c-14.27,14.95-28.88,28.97-41.96,44.3c-14.03,16.45-8.26,41.9,10.6,52.51c2.45,1.38,3.93,1.41,5.97-0.83  c9.82-10.79,19.85-21.39,29.8-32.06c9.69-10.39,19.36-20.8,29.19-31.35C154.86,180.86,143.86,170.21,132.42,159.12z M140.31,151.11  c11.17,10.82,22.16,21.46,33.26,32.21c0.69-0.61,1.17-0.98,1.58-1.42c19.24-20.61,38.45-41.26,57.77-61.8  c1.8-1.91,1.16-3.11-0.01-4.78c-12.39-17.62-37.71-19.91-53.41-4.73c-3.85,3.73-7.52,7.66-11.24,11.52  C158.99,131.7,149.74,141.31,140.31,151.11z"></path></g></svg>